<svg width="20" height="20" viewBox="0 0 20 20" fill="none" xmlns="http://www.w3.org/2000/svg">
<path d="M10.5 6.66667C10.5 6.39052 10.2761 6.16667 10 6.16667C9.72386 6.16667 9.5 6.39052 9.5 6.66667V10.8333C9.5 11.1095 9.72386 11.3333 10 11.3333C10.2761 11.3333 10.5 11.1095 10.5 10.8333V6.66667ZM10 13.6667C9.72386 13.6667 9.5 13.8905 9.5 14.1667V14.1756C9.5 14.4517 9.72386 14.6756 10 14.6756H10.0089C10.285 14.6756 10.5089 14.4517 10.5089 14.1756V14.1667C10.5089 13.8905 10.285 13.6667 10.0089 13.6667H10ZM19.5 10C19.5 11.2476 19.2543 12.4829 18.7769 13.6355C18.2994 14.7881 17.5997 15.8354 16.7175 16.7175C15.8354 17.5997 14.7881 18.2994 13.6355 18.7769C12.4829 19.2543 11.2476 19.5 10 19.5C8.75244 19.5 7.5171 19.2543 6.36451 18.7769C5.21192 18.2994 4.16464 17.5997 3.28249 16.7175C2.40033 15.8354 1.70056 14.7881 1.22314 13.6355C0.745725 12.4829 0.5 11.2476 0.5 10C0.5 7.48044 1.50089 5.06408 3.28249 3.28249C5.06408 1.50089 7.48044 0.5 10 0.5C12.5196 0.5 14.9359 1.50089 16.7175 3.28249C18.4991 5.06408 19.5 7.48044 19.5 10Z" fill="#D41B2C" stroke="white" stroke-linecap="round" stroke-linejoin="round"/>
</svg>
