<svg width="24" height="26" viewBox="0 0 24 26" fill="none" xmlns="http://www.w3.org/2000/svg">
<path d="M12 0.697754C5.373 0.697754 0 6.25589 0 13.1112C0 18.928 3.872 23.7951 9.092 25.142C9.036 24.9744 9 24.7799 9 24.5389V22.4172C8.513 22.4172 7.697 22.4172 7.492 22.4172C6.671 22.4172 5.941 22.0521 5.587 21.3734C5.194 20.6193 5.126 19.4659 4.152 18.7604C3.863 18.5256 4.083 18.2577 4.416 18.2939C5.031 18.4739 5.541 18.9104 6.021 19.558C6.499 20.2066 6.724 20.3535 7.617 20.3535C8.05 20.3535 8.698 20.3276 9.308 20.2283C9.636 19.3666 10.203 18.5732 10.896 18.1987C6.9 17.7735 4.993 15.717 4.993 12.925C4.993 11.723 5.488 10.5603 6.329 9.58064C6.053 8.60825 5.706 6.62519 6.435 5.87004C8.233 5.87004 9.32 7.07622 9.581 7.40207C10.477 7.08449 11.461 6.9045 12.495 6.9045C13.531 6.9045 14.519 7.08449 15.417 7.40414C15.675 7.08035 16.763 5.87004 18.565 5.87004C19.297 6.62623 18.946 8.61756 18.667 9.58788C19.503 10.5654 19.995 11.7251 19.995 12.925C19.995 15.715 18.091 17.7704 14.101 18.1977C15.199 18.7904 16 20.4559 16 21.7107V24.5389C16 24.6465 15.977 24.7241 15.965 24.8161C20.641 23.1206 24 18.5277 24 13.1112C24 6.25589 18.627 0.697754 12 0.697754Z" fill="white"/>
</svg>
