<svg width="24" height="26" viewBox="0 0 24 26" fill="none" xmlns="http://www.w3.org/2000/svg">
<path d="M6.66667 0.697754C2.99067 0.697754 0 3.74378 0 7.48782V18.3519C0 22.096 2.99067 25.142 6.66667 25.142H17.3333C21.0093 25.142 24 22.096 24 18.3519V7.48782C24 3.74378 21.0093 0.697754 17.3333 0.697754H6.66667ZM6.66667 3.41378H17.3333C19.5387 3.41378 21.3333 5.24166 21.3333 7.48782V18.3519C21.3333 20.5981 19.5387 22.426 17.3333 22.426H6.66667C4.46133 22.426 2.66667 20.5981 2.66667 18.3519V7.48782C2.66667 5.24166 4.46133 3.41378 6.66667 3.41378ZM18.6667 4.77179C18.313 4.77179 17.9739 4.91487 17.7239 5.16954C17.4738 5.42422 17.3333 5.76964 17.3333 6.1298C17.3333 6.48997 17.4738 6.83539 17.7239 7.09006C17.9739 7.34474 18.313 7.48782 18.6667 7.48782C19.0203 7.48782 19.3594 7.34474 19.6095 7.09006C19.8595 6.83539 20 6.48997 20 6.1298C20 5.76964 19.8595 5.42422 19.6095 5.16954C19.3594 4.91487 19.0203 4.77179 18.6667 4.77179ZM12 6.1298C8.324 6.1298 5.33333 9.17583 5.33333 12.9199C5.33333 16.6639 8.324 19.7099 12 19.7099C15.676 19.7099 18.6667 16.6639 18.6667 12.9199C18.6667 9.17583 15.676 6.1298 12 6.1298ZM12 8.84583C14.2053 8.84583 16 10.6737 16 12.9199C16 15.166 14.2053 16.9939 12 16.9939C9.79467 16.9939 8 15.166 8 12.9199C8 10.6737 9.79467 8.84583 12 8.84583Z" fill="gray"/>
</svg>
