<svg width="25" height="25" viewBox="0 0 25 25" fill="none" xmlns="http://www.w3.org/2000/svg">
<path d="M12.5 24C15.0492 23.9998 17.5261 23.1531 19.5419 21.5927C21.5576 20.0323 22.9981 17.8466 23.6371 15.3788M12.5 24C9.95084 23.9998 7.47391 23.1531 5.45813 21.5927C3.44235 20.0323 2.00188 17.8466 1.36289 15.3788M12.5 24C15.6753 24 18.25 18.8506 18.25 12.5C18.25 6.14945 15.6753 1 12.5 1M12.5 24C9.32472 24 6.75 18.8506 6.75 12.5C6.75 6.14945 9.32472 1 12.5 1M23.6371 15.3788C23.8735 14.4588 24 13.4941 24 12.5C24.0031 10.5221 23.4938 8.57721 22.5216 6.85478M23.6371 15.3788C20.2295 17.2679 16.3962 18.2561 12.5 18.25C8.45967 18.25 4.66339 17.2086 1.36289 15.3788M1.36289 15.3788C1.12107 14.4384 0.99914 13.4711 1 12.5C1 10.4492 1.53667 8.52228 2.47839 6.85478M12.5 1C14.5396 0.99915 16.5428 1.54096 18.3039 2.56983C20.065 3.59871 21.5207 5.0776 22.5216 6.85478M12.5 1C10.4604 0.99915 8.45721 1.54096 6.69609 2.56983C4.93497 3.59871 3.47928 5.0776 2.47839 6.85478M22.5216 6.85478C19.7395 9.26458 16.1807 10.5886 12.5 10.5833C8.66922 10.5833 5.16556 9.17778 2.47839 6.85478" stroke="gray" stroke-width="2" stroke-linecap="round" stroke-linejoin="round"/>
</svg>
