<svg width="24" height="26" viewBox="0 0 24 26" fill="none" xmlns="http://www.w3.org/2000/svg">
<path d="M19.9688 13.9238L10.3525 23.5401C9.29764 24.595 7.86689 25.1876 6.37503 25.1876C4.88318 25.1876 3.45243 24.595 2.39753 23.5401C1.34264 22.4852 0.75 21.0544 0.75 19.5626C0.75 18.0707 1.34264 16.64 2.39753 15.5851L16.0725 1.91007C16.4209 1.56191 16.8344 1.28576 17.2894 1.09739C17.7445 0.90903 18.2322 0.81214 18.7247 0.812256C19.2172 0.812372 19.7048 0.909492 20.1598 1.09807C20.6148 1.28665 21.0281 1.56299 21.3763 1.91132C21.7244 2.25965 22.0006 2.67315 22.189 3.12821C22.3773 3.58326 22.4742 4.07096 22.4741 4.56346C22.474 5.05596 22.3769 5.54361 22.1883 5.99857C21.9997 6.45354 21.7234 6.86691 21.375 7.21507L7.69003 20.9001C7.33502 21.2404 6.86049 21.4264 6.36872 21.4202C5.87695 21.4139 5.40732 21.2147 5.06103 20.8655C4.71475 20.5163 4.51955 20.045 4.51749 19.5532C4.51543 19.0614 4.70669 18.5884 5.05003 18.2363L14.8125 8.47382M7.70128 20.8876L7.68878 20.9001" stroke="black" stroke-width="1.5" stroke-linecap="round" stroke-linejoin="round"/>
</svg>
