<svg width="25" height="24" viewBox="0 0 25 24" fill="none" xmlns="http://www.w3.org/2000/svg">
<path fill-rule="evenodd" clip-rule="evenodd" d="M11.5714 22.351L11.6416 22.391L11.6696 22.407C11.781 22.467 11.9055 22.4985 12.0321 22.4985C12.1587 22.4985 12.2833 22.467 12.3946 22.407L12.4227 22.392L12.4939 22.351C12.886 22.1191 13.2687 21.8716 13.641 21.609C14.6047 20.9305 15.5051 20.1667 16.3313 19.327C18.2805 17.337 20.305 14.347 20.305 10.5C20.305 8.31196 19.4335 6.21354 17.8821 4.66637C16.3307 3.11919 14.2266 2.25 12.0326 2.25C9.83863 2.25 7.73451 3.11919 6.18313 4.66637C4.63175 6.21354 3.76019 8.31196 3.76019 10.5C3.76019 14.346 5.78568 17.337 7.73396 19.327C8.55984 20.1667 9.45991 20.9304 10.4233 21.609C10.7958 21.8716 11.1788 22.1191 11.5714 22.351ZM12.0326 13.5C12.8304 13.5 13.5956 13.1839 14.1597 12.6213C14.7238 12.0587 15.0408 11.2956 15.0408 10.5C15.0408 9.70435 14.7238 8.94129 14.1597 8.37868C13.5956 7.81607 12.8304 7.5 12.0326 7.5C11.2348 7.5 10.4697 7.81607 9.90553 8.37868C9.34139 8.94129 9.02446 9.70435 9.02446 10.5C9.02446 11.2956 9.34139 12.0587 9.90553 12.6213C10.4697 13.1839 11.2348 13.5 12.0326 13.5Z" fill="black"/>
</svg>
