<svg width="24" height="24" viewBox="0 0 24 24" fill="none" xmlns="http://www.w3.org/2000/svg">
<path fill-rule="evenodd" clip-rule="evenodd" d="M2.94415 6.75C2.94415 6.55109 3.0217 6.36032 3.15973 6.21967C3.29777 6.07902 3.48498 6 3.68019 6H19.873C20.0682 6 20.2554 6.07902 20.3935 6.21967C20.5315 6.36032 20.609 6.55109 20.609 6.75C20.609 6.94891 20.5315 7.13968 20.3935 7.28033C20.2554 7.42098 20.0682 7.5 19.873 7.5H3.68019C3.48498 7.5 3.29777 7.42098 3.15973 7.28033C3.0217 7.13968 2.94415 6.94891 2.94415 6.75ZM2.94415 12C2.94415 11.8011 3.0217 11.6103 3.15973 11.4697C3.29777 11.329 3.48498 11.25 3.68019 11.25H11.7766C11.9718 11.25 12.159 11.329 12.2971 11.4697C12.4351 11.6103 12.5126 11.8011 12.5126 12C12.5126 12.1989 12.4351 12.3897 12.2971 12.5303C12.159 12.671 11.9718 12.75 11.7766 12.75H3.68019C3.48498 12.75 3.29777 12.671 3.15973 12.5303C3.0217 12.3897 2.94415 12.1989 2.94415 12ZM2.94415 17.25C2.94415 17.0511 3.0217 16.8603 3.15973 16.7197C3.29777 16.579 3.48498 16.5 3.68019 16.5H19.873C20.0682 16.5 20.2554 16.579 20.3935 16.7197C20.5315 16.8603 20.609 17.0511 20.609 17.25C20.609 17.4489 20.5315 17.6397 20.3935 17.7803C20.2554 17.921 20.0682 18 19.873 18H3.68019C3.48498 18 3.29777 17.921 3.15973 17.7803C3.0217 17.6397 2.94415 17.4489 2.94415 17.25Z" fill="black"/>
</svg>
