<svg width="60" height="60" viewBox="0 0 60 60" fill="none" xmlns="http://www.w3.org/2000/svg">
<path fill-rule="evenodd" clip-rule="evenodd" d="M23.5027 7.50757C26.3902 2.50757 33.6102 2.50757 36.4952 7.50757L54.8827 39.3776C57.7677 44.3776 54.1577 50.6276 48.3852 50.6276H11.6127C5.8402 50.6276 2.2327 44.3776 5.1177 39.3776L23.5002 7.50757H23.5027ZM30.0002 20.6251C30.4975 20.6251 30.9744 20.8226 31.326 21.1742C31.6777 21.5259 31.8752 22.0028 31.8752 22.5001V31.8751C31.8752 32.3723 31.6777 32.8493 31.326 33.2009C30.9744 33.5525 30.4975 33.7501 30.0002 33.7501C29.5029 33.7501 29.026 33.5525 28.6744 33.2009C28.3227 32.8493 28.1252 32.3723 28.1252 31.8751V22.5001C28.1252 22.0028 28.3227 21.5259 28.6744 21.1742C29.026 20.8226 29.5029 20.6251 30.0002 20.6251ZM30.0002 41.2501C30.4975 41.2501 30.9744 41.0525 31.326 40.7009C31.6777 40.3493 31.8752 39.8723 31.8752 39.3751C31.8752 38.8778 31.6777 38.4009 31.326 38.0492C30.9744 37.6976 30.4975 37.5001 30.0002 37.5001C29.5029 37.5001 29.026 37.6976 28.6744 38.0492C28.3227 38.4009 28.1252 38.8778 28.1252 39.3751C28.1252 39.8723 28.3227 40.3493 28.6744 40.7009C29.026 41.0525 29.5029 41.2501 30.0002 41.2501Z" fill="black"/>
</svg>
