<svg width="50" height="50" viewBox="0 0 50 50" fill="none" xmlns="http://www.w3.org/2000/svg">
<path d="M20.5812 15.6646C23.0208 13.5292 26.9792 13.5292 29.4187 15.6646C31.8604 17.8 31.8604 21.2625 29.4187 23.3979C28.9958 23.7708 28.5229 24.0771 28.0229 24.3188C26.4708 25.0708 25.0021 26.4 25.0021 28.125V29.6875M43.75 25C43.75 27.4623 43.265 29.9005 42.3227 32.1753C41.3805 34.4502 39.9993 36.5172 38.2582 38.2582C36.5172 39.9993 34.4502 41.3805 32.1753 42.3227C29.9005 43.265 27.4623 43.75 25 43.75C22.5377 43.75 20.0995 43.265 17.8247 42.3227C15.5498 41.3805 13.4828 39.9993 11.7417 38.2582C10.0006 36.5172 8.61953 34.4502 7.67726 32.1753C6.73498 29.9005 6.25 27.4623 6.25 25C6.25 20.0272 8.22544 15.2581 11.7417 11.7417C15.2581 8.22544 20.0272 6.25 25 6.25C29.9728 6.25 34.7419 8.22544 38.2582 11.7417C41.7746 15.2581 43.75 20.0272 43.75 25ZM25 35.9375H25.0167V35.9542H25V35.9375Z" stroke="black" stroke-width="1.5" stroke-linecap="round" stroke-linejoin="round"/>
</svg>
